<svg width="632" height="305" viewBox="0 0 632 305" fill="none" xmlns="http://www.w3.org/2000/svg">
    <g clip-path="url(#clip0_14351_5806)">
        <path
            d="M302 7C302.33 7 302.66 7 303 7C303 9.31 303 11.62 303 14C303.66 14.33 304.32 14.66 305 15C304.83 15.74 304.66 16.47 304.49 17.23C304.29 18.21 304.08 19.18 303.88 20.19C303.67 21.15 303.46 22.11 303.24 23.11C302.97 26.35 303.58 28.12 305 31C306.32 31 307.64 31 309 31C309 29.68 309 28.36 309 27C312.96 27 316.92 27 321 27C321 29.64 321 32.28 321 35C322.32 35 323.64 35 325 35C325 35.66 325 36.32 325 37C326.32 37 327.64 37 329 37C329 36.34 329 35.68 329 35C329.66 35 330.32 35 331 35C331 34.34 331 33.68 331 33C331.66 33 332.32 33 333 33C333 33.66 333 34.32 333 35C334.32 35 335.64 35 337 35C337 36.32 337 37.64 337 39C337.99 39.33 338.98 39.66 340 40C340.12 40.58 340.25 41.16 340.38 41.75C341.13 44.45 342.49 45.6 344.5 47.47C346.24 49.25 347.61 51.17 349.06 53.19C351.62 56.67 354.2 58.88 357.78 61.29C364.5 65.94 364.5 65.94 365.54 70.2C366.04 75.51 365.62 80.71 365 86C359.79 82.8 355.58 78.98 351.25 74.69C350.58 74.05 349.91 73.41 349.21 72.75C345.1 68.68 343.04 65.73 342 60C340.35 60.33 338.7 60.66 337 61C337 60.01 337 59.02 337 58C336.01 58 335.02 58 334 58C333.83 61.48 333.66 64.96 333.5 68.44C333.45 69.41 333.4 70.39 333.36 71.39C333.08 77.27 332.95 83.12 333 89C333.72 89.28 334.43 89.55 335.17 89.84C337.96 90.98 340.62 92.26 343.31 93.62C344.2 94.07 345.08 94.52 345.99 94.98C346.98 95.48 346.98 95.48 348 96C347.67 94.35 347.34 92.7 347 91C349.64 92.65 352.28 94.3 355 96C354.34 93.69 353.68 91.38 353 89C355.59 89.93 357.72 90.77 359.88 92.5C362.04 94.23 362.04 94.23 365.31 94.75C373.16 97.41 376.52 103.69 380.44 110.56C384.81 118.17 388.87 122.93 397.56 125.38C402.03 126.72 403.98 128.72 406.83 132.33C409.86 136.05 413.15 139.51 416.44 143C417.69 144.33 418.94 145.67 420.18 147C421.12 148 422.06 149 423 150C423.66 149.34 424.32 148.68 425 148C428.6 150.64 430.75 152.9 432.88 156.81C437.87 165.06 445.07 171.39 452 178C449.36 172.39 446.72 166.78 444 161C451.88 163.25 451.88 163.25 455 165C454.34 162.69 453.68 160.38 453 158C454.13 158.58 455.26 159.16 456.43 159.75C457.91 160.5 459.39 161.25 460.88 162C461.62 162.38 462.37 162.76 463.14 163.16C463.85 163.52 464.57 163.88 465.3 164.25C465.96 164.59 466.62 164.92 467.3 165.27C469 166.13 469 166.13 471 166C462.59 156.8 462.59 156.8 452.44 149.75C447.88 147.32 446.3 144.75 444.52 139.95C444 138 444 138 444 136C443.24 135.73 442.47 135.46 441.69 135.19C438.16 133.63 436.63 131.88 434.4 128.77C431.35 125.25 427.89 122.72 424.12 120C421.41 118.01 418.7 116.01 416 114C415.44 113.59 414.87 113.19 414.29 112.77C410.16 109.62 408.22 106.3 406.12 101.69C405.82 101.04 405.51 100.4 405.2 99.73C404.45 98.16 403.72 96.58 403 95C409.3 84.74 414.35 77.56 425.31 72.24C432.63 68.27 441.26 59.48 445 52C447.72 53.07 448.92 53.88 450.62 56.31C453.16 59.18 454.65 59.78 458.12 61.19C462.72 63.35 462.72 63.35 463.92 66.12C464.19 67.81 464.42 69.51 464.61 71.22C465.35 76.5 467.82 81.18 470 86C470.64 87.49 471.29 88.98 471.93 90.47C472.62 92.02 473.31 93.57 474 95.12C474.32 95.87 474.64 96.62 474.97 97.39C476.93 101.75 476.93 101.75 480.75 104.49C481.49 104.66 482.24 104.83 483 105C483 106.32 483 107.64 483 109C483.94 108.95 483.94 108.95 484.91 108.9C490.49 108.98 493.69 109.92 497.69 113.94C501.02 118.07 501.02 118.07 500.95 121.5C500.7 122.74 500.7 122.74 500.44 124C499.85 126.5 499.85 126.5 500 129C502.47 132.63 505.65 135.21 509 138C509.68 138.69 510.36 139.37 511.07 140.08C515.25 144.23 517.76 145.4 523.57 145.57C527.8 146.32 530.95 148.97 534.43 151.38C537.04 153.22 537.04 153.22 540.69 153.88C545.94 155.66 548.6 159.77 552 164C553 165.15 554 166.29 555 167.44C557 170 557 170 557 172C557.55 171.93 558.11 171.86 558.68 171.79C565.67 171.31 568.99 173.44 574.19 177.88C575.68 179.08 577.18 180.29 578.68 181.5C579.41 182.1 580.14 182.69 580.9 183.31C583.81 185.65 586.82 187.8 589.88 189.94C604.13 200 618.06 210.51 632 221C628.67 223.82 625.34 225.15 621.25 226.62C619.81 227.15 618.37 227.68 616.93 228.2C615.75 228.63 615.75 228.63 614.55 229.07C610.83 230.43 607.12 231.83 603.41 233.23C593.44 236.99 583.44 240.69 573.39 244.26C568.53 246.01 563.83 247.94 559.12 250.08C555.95 251.46 552.73 252.5 549.44 253.56C545.54 254.82 541.67 256.09 537.88 257.62C529.7 260.76 520.79 262.1 512.2 263.58C488.72 267.65 465.52 273.02 442.73 279.95C441.6 280.3 440.47 280.64 439.31 280.99C433.71 282.7 428.13 284.44 422.55 286.21C420.5 286.85 418.44 287.49 416.38 288.13C415.45 288.44 414.52 288.74 413.56 289.06C407.85 290.82 403.87 291.19 398 290C396.86 289.8 396.86 289.8 395.7 289.6C395.08 289.47 394.47 289.34 393.84 289.2C393.12 289.05 392.4 288.9 391.66 288.74C390.9 288.58 390.15 288.42 389.38 288.25C388.17 287.99 388.17 287.99 386.94 287.73C382.31 286.74 377.69 285.7 373.08 284.62C372.1 284.4 371.12 284.17 370.11 283.93C368.2 283.49 366.29 283.03 364.39 282.58C356.5 280.52 356.5 280.52 348.73 282.02C348.03 282.47 347.34 282.92 346.62 283.38C345.09 284.26 343.55 285.13 342 286C341.34 286.37 340.68 286.75 340 287.13C337.66 288.11 336.51 288.47 334 288C330.2 285.05 327.09 281.66 324 278C316.44 280.42 309.07 283.26 301.69 286.19C300.44 286.68 299.2 287.17 297.96 287.66C294.3 289.1 290.65 290.55 287 292C285.99 292.4 284.98 292.8 283.94 293.21C281.3 294.26 278.65 295.32 276 296.38C274.79 296.85 274.79 296.85 273.56 297.34C268.17 299.49 262.86 301.8 257.61 304.29C251.6 305.93 246.43 303.52 241.12 300.79C240.17 300.3 240.17 300.3 239.19 299.81C237.83 299.12 236.47 298.42 235.11 297.72C232.24 296.23 229.35 294.77 226.47 293.31C225.01 292.57 223.56 291.83 222.11 291.09C215.38 287.67 208.59 284.39 201.76 281.18C196.85 278.87 191.98 276.49 187.16 273.99C184.38 272.56 181.6 271.15 178.81 269.74C177.46 269.05 176.1 268.34 174.76 267.63C167.65 263.85 161.87 260.84 153.75 263.1C152.84 263.4 151.93 263.69 151 264C148.86 264.56 146.73 265.11 144.59 265.66C142.37 266.27 140.15 266.88 137.94 267.5C133.63 268.7 129.32 269.87 125 271C123.62 271.39 123.62 271.39 122.22 271.78C118.1 272.82 115.17 273.48 111.24 271.63C110.13 270.95 109.02 270.27 107.88 269.56C102.57 266.41 102.57 266.41 96.56 265.94C94.14 266.66 91.73 267.39 89.31 268.12C85.14 269.23 82.59 268.89 78.82 266.77C78.12 266.31 77.41 265.85 76.69 265.38C72.97 263.26 70.52 262.51 66.17 263.4C64.54 263.85 62.92 264.32 61.3 264.79C51.61 267.62 51.61 267.62 46 266C44.84 265.34 43.69 264.65 42.56 263.94C38.58 261.46 35.64 261.62 31 262C30.43 262.17 29.86 262.34 29.27 262.51C25.83 263.25 22.38 263.19 18.88 263.19C18.12 263.19 17.37 263.19 16.59 263.19C10.88 263.14 5.52 262.52 0 261C2.11 258.89 3.74 258.07 6.44 256.88C7.61 256.35 7.61 256.35 8.81 255.8C11 255 11 255 14 255C14.27 254.11 14.54 253.23 14.81 252.31C17 246.2 19.41 243.36 24.95 239.93C26.14 239.17 27.33 238.41 28.52 237.65C30.38 236.48 32.24 235.32 34.1 234.17C42.17 229.17 48.19 224.4 53 216C53.41 215.32 53.83 214.65 54.25 213.95C55.01 212.71 55.77 211.45 56.51 210.19C61.64 201.53 67.75 194.17 74.48 186.72C77.47 183.34 80.27 179.8 83.1 176.27C83.73 175.52 84.35 174.77 85 174C85.6 173.25 86.21 172.5 86.83 171.72C89.82 169.35 91.91 169.6 95.69 169.62C103.76 169.25 108.17 166.92 113.75 161.21C114.9 159.92 116.02 158.6 117.12 157.27C119.33 154.6 121.66 152.05 124 149.5C126.94 146.27 129.87 143.04 132.75 139.75C133.3 139.12 133.86 138.5 134.43 137.86C136.03 136.01 136.03 136.01 137.45 133.99C138.88 132.06 140.14 130.52 142 129C144.01 128.72 144.01 128.72 146.22 128.74C152.07 128.25 154.75 125.27 158.62 121.12C159.3 120.43 159.97 119.75 160.66 119.04C162.8 116.86 164.9 114.65 167 112.44C169.14 110.23 171.28 108.03 173.42 105.82C174.75 104.45 176.07 103.08 177.39 101.7C178.91 100.12 180.45 98.56 182 97C182.33 97 182.66 97 183 97C183.06 98.13 183.11 99.26 183.17 100.42C183.38 104.68 183.59 108.95 183.8 113.21C183.89 115.04 183.98 116.87 184.07 118.7C184.33 123.98 184.6 129.26 184.88 134.54C184.99 136.85 185.09 139.15 185.19 141.46C185.57 149.61 186.64 157.19 188.81 165.06C189.38 167.13 189.94 169.21 190.5 171.28C190.77 172.26 191.04 173.24 191.31 174.25C191.91 176.64 192.35 178.95 192.69 181.38C194.63 193.01 201.94 198.06 211.06 204.6C213.44 206.32 215.73 208.14 218 210C217.49 204.52 216.93 199.05 216.29 193.58C216.11 191.95 215.94 190.32 215.79 188.69C215.04 179.92 215.04 179.92 210.75 172.45C208.88 170.91 206.99 169.4 205.07 167.91C200.94 164.37 198.47 159.75 195.81 155.06C195.33 154.22 194.85 153.38 194.35 152.51C191 146.44 191 146.44 191 143C191.71 143.66 192.43 144.33 193.16 145.01C194.12 145.89 195.08 146.78 196.06 147.69C197.47 148.99 197.47 148.99 198.91 150.32C202.09 153.17 205.5 155.57 209 158C208.64 157.23 208.27 156.46 207.9 155.66C206.55 152.79 205.21 149.93 203.87 147.06C203.29 145.81 202.71 144.57 202.13 143.33C201.29 141.55 200.46 139.77 199.62 137.98C199.12 136.91 198.62 135.83 198.1 134.73C197 132 197 132 197 129C199.97 131.97 202.94 134.94 206 138C203.44 129.81 200.72 122.53 195 116C195.33 115.34 195.66 114.68 196 114C196.66 114.21 197.32 114.41 198 114.62C205.59 115.57 211.73 111.8 218 108C218.19 108.88 218.39 109.76 218.59 110.67C218.85 111.83 219.11 112.99 219.38 114.19C219.63 115.34 219.89 116.48 220.15 117.67C221.66 123.57 222.95 126.41 228 130C228.37 129.13 228.37 129.13 228.75 128.25C230.17 125.7 231.88 123.98 234 122C232.86 118.57 231.8 117.75 229.06 115.5C226.49 113.37 224.88 111.82 223 109C227.72 101.43 232.72 96.15 239.9 90.97C246.93 85.84 251.6 79.55 255.94 72.06C256.59 70.97 256.59 70.97 257.25 69.85C260.13 64.85 262.39 59.79 264.5 54.44C266.99 48.22 269.97 44.43 275.57 40.68C281.3 36.72 285.32 31.23 289.5 25.75C290.06 25.04 290.61 24.32 291.18 23.59C294.57 19.17 297.43 14.68 300.04 9.76C301 8 301 8 302 7Z"
            fill="#1B391B" />
        <path
            d="M302 21C302.14 21.59 302.29 22.19 302.43 22.8C303.15 25.58 304.07 28.28 305 31C306.32 31 307.64 31 309 31C309 29.68 309 28.36 309 27C312.96 27 316.92 27 321 27C321 29.64 321 32.28 321 35C322.32 35 323.64 35 325 35C325 35.66 325 36.32 325 37C326.32 37 327.64 37 329 37C329 36.34 329 35.68 329 35C329.66 35 330.32 35 331 35C331 34.34 331 33.68 331 33C331.66 33 332.32 33 333 33C333 33.66 333 34.32 333 35C334.32 35 335.64 35 337 35C337 36.32 337 37.64 337 39C338.49 39.5 338.49 39.5 340 40C340.12 40.58 340.25 41.16 340.38 41.75C341.13 44.45 342.49 45.6 344.5 47.47C346.24 49.25 347.61 51.17 349.06 53.19C351.62 56.67 354.2 58.88 357.78 61.29C364.5 65.94 364.5 65.94 365.54 70.2C366.04 75.51 365.62 80.71 365 86C359.79 82.8 355.58 78.98 351.25 74.69C350.58 74.05 349.91 73.41 349.21 72.75C345.1 68.68 343.04 65.73 342 60C340.35 60.33 338.7 60.66 337 61C337 60.01 337 59.02 337 58C336.01 58 335.02 58 334 58C333.83 61.48 333.66 64.96 333.5 68.44C333.45 69.41 333.4 70.39 333.36 71.39C333.08 77.27 332.95 83.12 333 89C333.72 89.28 334.43 89.55 335.17 89.84C337.96 90.98 340.62 92.26 343.31 93.62C344.64 94.29 344.64 94.29 345.99 94.98C346.65 95.31 347.32 95.65 348 96C347.67 94.35 347.34 92.7 347 91C349.64 92.65 352.28 94.3 355 96C354.01 92.53 354.01 92.53 353 89C355.59 89.93 357.72 90.77 359.88 92.5C362.04 94.23 362.04 94.23 365.31 94.75C373.16 97.41 376.52 103.69 380.44 110.56C384.81 118.17 388.87 122.93 397.56 125.38C402.03 126.72 403.98 128.72 406.83 132.33C409.86 136.05 413.15 139.51 416.44 143C417.69 144.33 418.94 145.67 420.18 147C421.12 148 422.06 149 423 150C423.66 149.34 424.32 148.68 425 148C428.69 150.69 430.89 153.1 433.12 157.06C436.6 162.8 440.73 166.92 445.64 171.39C449.29 175.42 450.01 178.48 449.98 183.87C449.87 185.2 449.75 186.54 449.62 187.88C449.42 190.23 449.21 192.58 449 195C456.92 195 464.84 195 473 195C473.31 198.84 473.62 202.67 473.94 206.62C474.05 207.82 474.17 209.02 474.29 210.26C474.76 217.96 474.76 217.96 472.52 221.04C470.75 222.55 468.97 223.77 467 225C466.3 225.7 465.6 226.4 464.88 227.12C463 229 463 229 460.31 231.12C457.93 232.79 457.93 232.79 457 235C452.39 233.51 447.88 231.84 443.38 230.06C442.72 229.81 442.07 229.56 441.39 229.3C438.62 228.2 436.24 227.19 433.91 225.31C431.99 223.72 431.99 223.72 429.12 224.05C425.03 223.98 423.34 222.58 420.12 220.12C419.16 219.41 418.19 218.69 417.2 217.95C416.47 217.3 415.75 216.66 415 216C415 215.34 415 214.68 415 214C414.19 213.79 413.39 213.58 412.56 213.37C407.91 211.58 404.14 208.95 400.06 206.12C394.81 202.52 389.58 199.08 384 196C386.48 200.95 386.48 200.95 389 206C385.13 204.07 382.51 201.87 379.44 198.94C374.55 194.35 369.52 190.06 364.28 185.88C362 184 362 184 360.44 182.31C357.21 179.37 353.03 179.86 348.88 179.88C347.82 179.87 346.77 179.87 345.68 179.87C343.03 179.82 343.03 179.82 341 181C341.43 182.06 341.87 183.12 342.31 184.21C342.88 185.6 343.44 186.99 344 188.38C344.29 189.07 344.57 189.77 344.87 190.49C347 195.77 347 195.77 347 198C342.36 195.81 338.39 192.82 334.25 189.81C333.48 189.26 332.7 188.71 331.91 188.14C324.53 182.81 317.95 177.26 312.06 170.32C307.47 165.15 302.47 160.37 297.56 155.5C296.44 154.38 295.31 153.26 294.19 152.14C291.46 149.42 288.73 146.71 286 144C286.28 146.05 286.57 148.09 286.86 150.13C287.1 151.84 287.1 151.84 287.34 153.58C288.4 159.09 290.71 163.91 293 169C294.13 171.7 295.22 174.41 296.31 177.12C296.58 177.78 296.85 178.43 297.12 179.1C299 183.77 299 183.77 299 186C298.34 186 297.68 186 297 186C297 185.34 297 184.68 297 184C296.46 183.79 295.93 183.59 295.38 183.38C293.1 182.06 291.68 180.78 289.85 178.91C289.05 178.1 289.05 178.1 288.23 177.26C287.82 176.85 287.42 176.43 287 176C288.19 178.38 289.4 180.76 290.62 183.12C291.12 184.12 291.12 184.12 291.63 185.14C293.48 188.71 295.19 191.31 298.25 193.94C300.79 196.32 301.42 197.83 301.59 201.3C301.55 202.83 301.48 204.35 301.38 205.88C301.33 207.05 301.33 207.05 301.29 208.25C301.22 210.17 301.12 212.08 301 214C295.96 211.22 291.28 208.19 286.62 204.81C286 204.36 285.37 203.91 284.72 203.45C280.16 200.16 280.16 200.16 279 199C279.35 194.98 279.78 191.62 281.12 187.81C282.43 182.13 281.8 176.74 281 171C280.9 170.28 280.8 169.56 280.7 168.82C279.67 162.84 277.51 159.42 273.38 155.06C272.29 153.86 271.2 152.65 270.12 151.45C269.59 150.86 269.05 150.28 268.51 149.68C265.15 145.94 262.11 141.95 259 138C257.91 136.96 257.91 136.96 256.8 135.9C254.05 131.47 254.57 127.28 254.75 122.19C254.77 121.21 254.79 120.23 254.8 119.22C254.85 116.81 254.92 114.41 255 112C259.27 113.41 261.88 115.49 265.19 118.5C270.45 122.96 274.19 124.31 281 125C281 121.7 281 118.4 281 115C280.34 115 279.68 115 279 115C279 113.68 279 112.36 279 111C274.38 111 269.76 111 265 111C265 96.48 265 81.96 265 67C265.66 67 266.32 67 267 67C266.98 65.87 266.96 64.73 266.94 63.56C267 60 267 60 268 59C269.67 58.96 271.33 58.96 273 59C273 61.64 273 64.28 273 67C275.64 67 278.28 67 281 67C281.5 74.92 281.5 74.92 282 83C283.32 83.33 284.64 83.66 286 84C286 82.02 286 80.04 286 78C286.66 78 287.32 78 288 78C289.59 73.83 290.64 70.46 290 66C288.88 64.34 288.88 64.34 287.5 62.69C284.89 59.28 284.21 56.77 284.43 52.49C285.57 47.52 288.31 43.28 291 39C294.81 40.79 297.26 42.75 300 46C300.72 48.32 301.39 50.65 302 53C303.48 54.73 303.48 54.73 305 56C305.33 56.99 305.66 57.98 306 59C306.5 58.01 306.5 58.01 307 57C309 59 309 59 309 63C310.32 63 311.64 63 313 63C313 63.66 313 64.32 313 65C314.98 65 316.96 65 319 65C319 64.34 319 63.68 319 63C318.34 63 317.68 63 317 63C317 61.68 317 60.36 317 59C318.32 59 319.64 59 321 59C321 57.68 321 56.36 321 55C322.65 54.67 324.3 54.34 326 54C325.97 56.05 325.93 58.1 325.9 60.15C325.79 62.02 325.79 62.02 327 63C327.38 59.06 327.29 55.77 326 52C322.36 48.66 318.36 46.3 314 44C314.05 44.93 314.1 45.86 314.16 46.82C314 50 314 50 311.5 52.88C310.68 53.58 309.85 54.28 309 55C309.11 53.08 309.24 51.17 309.38 49.25C309.44 48.18 309.51 47.12 309.59 46.02C309.97 43.2 310.56 41.42 312 39C310.35 39.33 308.7 39.66 307 40C300.01 31.84 300.01 31.84 299.98 27.33C300.5 25.12 301.12 23.09 302 21Z"
            fill="#254C23" />
        <path
            d="M445 52C447.72 53.07 448.92 53.88 450.62 56.31C453.16 59.18 454.65 59.78 458.12 61.19C462.72 63.35 462.72 63.35 463.92 66.12C464.19 67.81 464.42 69.51 464.61 71.22C465.35 76.5 467.82 81.18 470 86C470.64 87.49 471.29 88.98 471.93 90.47C472.62 92.02 473.31 93.57 474 95.12C474.32 95.87 474.64 96.62 474.97 97.39C476.93 101.75 476.93 101.75 480.75 104.49C481.49 104.66 482.24 104.83 483 105C483 106.32 483 107.64 483 109C483.94 108.95 483.94 108.95 484.91 108.9C490.49 108.98 493.69 109.92 497.69 113.94C501.02 118.07 501.02 118.07 500.95 121.5C500.78 122.33 500.61 123.15 500.44 124C499.85 126.5 499.85 126.5 500 129C502.47 132.63 505.65 135.21 509 138C509.68 138.69 510.36 139.37 511.07 140.08C515.25 144.23 517.76 145.4 523.57 145.57C527.8 146.32 530.95 148.97 534.43 151.38C537.04 153.22 537.04 153.22 540.69 153.88C545.94 155.66 548.6 159.77 552 164C553 165.15 554 166.29 555 167.44C557 170 557 170 557 172C557.55 171.93 558.11 171.86 558.68 171.79C565.67 171.31 568.99 173.44 574.19 177.88C575.68 179.08 577.18 180.29 578.68 181.5C579.41 182.1 580.14 182.69 580.9 183.31C583.81 185.65 586.82 187.8 589.88 189.94C604.13 200 618.06 210.51 632 221C628.67 223.82 625.34 225.15 621.25 226.62C619.82 227.15 618.4 227.67 616.97 228.19C615.79 228.61 615.79 228.61 614.59 229.05C611.73 230.1 608.88 231.17 606.03 232.25C604.47 232.84 604.47 232.84 602.89 233.44C600.85 234.21 598.81 234.98 596.78 235.75C593.86 236.85 590.93 237.93 588 239C586.93 239.4 585.85 239.79 584.74 240.2C583.68 240.58 582.62 240.96 581.53 241.34C580.57 241.69 579.61 242.03 578.62 242.39C575.78 243.05 574.48 242.96 571.81 241.88C569 240 569 240 568 238C566.02 238 564.04 238 562 238C561.67 237.01 561.34 236.02 561 235C557.88 236.31 557.88 236.31 556 239C555.01 239 554.02 239 553 239C552.81 238.42 552.63 237.85 552.44 237.25C550.69 234.52 548.61 233.5 545.8 231.98C540.39 229.03 537.67 225.18 534.41 220.13C532.8 217.7 531.39 215.7 529 214C526.54 214.02 526.54 214.02 524 215C522.97 215.23 521.94 215.45 520.88 215.69C517.05 217.43 516.75 219.22 515 223C511.38 227.99 508.3 231.77 502 233C501.67 231.68 501.34 230.36 501 229C500.34 229 499.68 229 499 229C499 228.34 499 227.68 499 227C497.02 227.33 495.04 227.66 493 228C491.39 225.77 489.79 223.54 488.19 221.31C487.74 220.69 487.28 220.06 486.82 219.42C484.86 216.69 483.02 214.03 481.36 211.11C480.11 208.69 480.11 208.69 477 208C476.88 208.95 476.75 209.9 476.62 210.88C476 214 476 214 474 216C473.08 213.23 472.88 211.62 472.9 208.77C472.9 208.05 472.91 207.32 472.91 206.58C472.92 205.66 472.93 204.75 472.94 203.81C472.96 200.9 472.98 198 473 195C465.08 195 457.16 195 449 195C449.06 187.25 449.06 187.25 449.09 184.83C449.1 181.37 448.93 178.32 448 175C449.32 175.66 450.64 176.32 452 177C449.36 171.72 446.72 166.44 444 161C451.88 163.25 451.88 163.25 455 165C454.34 162.69 453.68 160.38 453 158C454.7 158.87 454.7 158.87 456.43 159.75C457.91 160.5 459.39 161.25 460.88 162C461.99 162.57 461.99 162.57 463.14 163.16C463.85 163.52 464.57 163.88 465.3 164.25C465.96 164.59 466.62 164.92 467.3 165.27C469 166.13 469 166.13 471 166C462.59 156.8 462.59 156.8 452.44 149.75C447.88 147.32 446.3 144.75 444.52 139.95C444 138 444 138 444 136C443.24 135.73 442.47 135.46 441.69 135.19C438.16 133.63 436.63 131.88 434.4 128.77C431.35 125.25 427.89 122.72 424.12 120C421.41 118.01 418.7 116.01 416 114C415.44 113.59 414.87 113.19 414.29 112.77C410.16 109.62 408.22 106.3 406.12 101.69C405.82 101.04 405.51 100.4 405.2 99.73C404.45 98.16 403.72 96.58 403 95C409.3 84.74 414.35 77.56 425.31 72.24C432.63 68.27 441.26 59.48 445 52Z"
            fill="#254C23" />
        <path
            d="M255 112C258.96 113.36 261.6 115.13 264.75 117.88C269.35 121.73 274.08 125.26 279 128.69C285.3 133.08 291.52 137.56 297.69 142.12C298.49 142.72 299.3 143.31 300.13 143.93C303.6 146.48 307.05 149.03 310.47 151.65C323.81 161.75 339.35 173.18 356.6 172.83C360.87 172.77 363.12 173.1 366.31 176C366.9 176.64 367.49 177.28 368.09 177.93C370.32 180.34 372.72 182.13 375.38 184.06C381.5 188.59 387.51 193.26 393.51 197.95C398.29 201.69 403.12 205.37 408 209C404.4 209 403.3 208.12 400.33 206.16C399.44 205.57 398.55 204.98 397.63 204.38C396.7 203.76 395.77 203.14 394.81 202.5C393.87 201.88 392.93 201.26 391.96 200.62C389.64 199.09 387.32 197.55 385 196C385.82 199.65 387.26 202.68 389 206C385.14 204.4 382.42 201.78 379.44 198.94C374.55 194.35 369.52 190.06 364.28 185.88C362 184 362 184 360.44 182.31C357.21 179.37 353.03 179.86 348.88 179.88C347.82 179.87 346.77 179.87 345.68 179.87C343.03 179.82 343.03 179.82 341 181C341.43 182.06 341.87 183.12 342.31 184.21C342.88 185.6 343.44 186.99 344 188.38C344.29 189.07 344.57 189.77 344.87 190.49C347 195.77 347 195.77 347 198C342.36 195.81 338.39 192.82 334.25 189.81C333.48 189.26 332.7 188.71 331.91 188.14C324.53 182.81 317.95 177.26 312.06 170.32C307.47 165.15 302.47 160.37 297.56 155.5C296.44 154.38 295.31 153.26 294.19 152.14C291.46 149.42 288.73 146.71 286 144C286.28 146.05 286.57 148.09 286.86 150.13C287.1 151.84 287.1 151.84 287.34 153.58C288.4 159.09 290.71 163.91 293 169C294.13 171.7 295.22 174.41 296.31 177.12C296.58 177.78 296.85 178.43 297.12 179.1C299 183.77 299 183.77 299 186C298.34 186 297.68 186 297 186C297 185.34 297 184.68 297 184C296.46 183.79 295.93 183.59 295.38 183.38C293.1 182.06 291.68 180.78 289.85 178.91C289.05 178.1 289.05 178.1 288.23 177.26C287.82 176.85 287.42 176.43 287 176C288.19 178.38 289.4 180.76 290.62 183.12C290.96 183.79 291.29 184.46 291.63 185.14C293.48 188.71 295.19 191.31 298.25 193.94C300.79 196.32 301.42 197.83 301.59 201.3C301.55 202.83 301.48 204.35 301.38 205.88C301.33 207.05 301.33 207.05 301.29 208.25C301.22 210.17 301.12 212.08 301 214C295.96 211.22 291.28 208.19 286.62 204.81C286 204.36 285.37 203.91 284.72 203.45C280.16 200.16 280.16 200.16 279 199C279.35 194.98 279.78 191.62 281.12 187.81C282.43 182.13 281.8 176.74 281 171C280.9 170.28 280.8 169.56 280.7 168.82C279.67 162.84 277.51 159.42 273.38 155.06C272.29 153.86 271.2 152.65 270.12 151.45C269.59 150.86 269.05 150.28 268.51 149.68C265.15 145.94 262.11 141.95 259 138C258.27 137.31 257.55 136.61 256.8 135.9C254.05 131.47 254.57 127.28 254.75 122.19C254.77 121.21 254.79 120.23 254.8 119.22C254.85 116.81 254.92 114.41 255 112Z"
            fill="white" />
        <path
            d="M291 39C294.81 40.79 297.26 42.75 300 46C300.72 48.32 301.39 50.65 302 53C302.48 53.44 302.96 53.88 303.46 54.34C305.63 56.68 305.9 58.91 306.56 62C307.36 65.67 307.9 67.84 310 71C309.98 73.26 309.98 73.26 309.62 75.69C309.46 76.9 309.46 76.9 309.29 78.14C309.15 79.06 309.15 79.06 309 80C308.34 80 307.68 80 307 80C306.06 78.24 305.11 76.48 304.17 74.73C302.95 72.69 302.95 72.69 300 71C299.67 73.64 299.34 76.28 299 79C297.02 77.68 295.04 76.36 293 75C292.65 75.58 292.3 76.16 291.94 76.75C291.49 77.49 291.03 78.24 290.56 79C290.11 79.74 289.66 80.49 289.19 81.25C288.8 81.83 288.41 82.41 288 83C287.67 83 287.34 83 287 83C287.75 76.48 287.75 76.48 289.06 73.94C290.46 71.04 290.44 69.19 290 66C288.88 64.33 288.88 64.33 287.5 62.69C284.89 59.28 284.21 56.77 284.43 52.49C285.57 47.52 288.31 43.28 291 39Z"
            fill="white" />
        <path
            d="M323 75C323.66 75.33 324.32 75.66 325 76C324.65 76.56 324.3 77.11 323.94 77.69C322.01 82.44 324.79 87.97 326.63 92.5C328.53 95.97 331.03 98.04 334.1 100.48C337.24 102.99 339.5 105.61 340.87 109.4C342.11 112.26 343.47 113.82 345.7 115.99C346.41 116.69 347.13 117.4 347.86 118.13C348.98 119.21 348.98 119.21 350.12 120.31C350.88 121.05 351.63 121.79 352.41 122.56C354.27 124.38 356.13 126.19 358 128C353.77 128 350.88 125.88 347.31 123.81C346.59 123.4 345.87 122.99 345.13 122.57C341.45 120.46 337.85 118.29 334.31 115.94C331.29 113.78 331.29 113.78 328.55 114.06C325.38 113.99 324.3 113.11 321.88 111.12C321.21 110.59 320.55 110.06 319.87 109.51C319.25 109.01 318.63 108.51 318 108C317.01 107.34 316.02 106.68 315 106C313.5 103.5 313.5 103.5 313 100C314.08 97.44 315.4 95.09 316.77 92.66C318.4 89.14 318.49 86.03 318.69 82.21C319.14 79 320.72 77.21 323 75Z"
            fill="white" />
        <path
            d="M491 166C492.68 167.9 492.68 167.9 494.31 170.38C495.21 171.71 495.21 171.71 496.12 173.08C496.74 174.04 497.36 175.01 498 176C498.99 177.54 498.99 177.54 500.01 179.11C501.69 181.73 503.35 184.36 505 187C500.77 187 499.52 185.13 496.44 182.31C495.47 181.44 494.5 180.57 493.5 179.68C491.11 177.11 490.01 175.31 489 172C487.68 172.33 486.36 172.66 485 173C485 173.99 485 174.98 485 176C482.36 176.33 479.72 176.66 477 177C477.66 176.01 478.32 175.02 479 174C479.25 172.82 479.5 171.65 479.75 170.44C481 167 481 167 483.88 165.5C486.93 165.01 488.19 164.88 491 166Z"
            fill="white" />
        <path
            d="M321 0C321 1.98 321 3.96 321 6C322.18 6.46 322.18 6.46 323.38 6.94C326 8 326 8 328 9C328.56 11.8 328.56 11.8 329 15.31C329.5 19.29 329.94 22.52 332 26C330.68 26 329.36 26 328 26C327.81 25.32 327.63 24.64 327.44 23.94C325.41 19.79 322.33 17.14 319 14C316.67 11.67 314.33 9.33 312 7C313.31 5.83 314.62 4.66 315.94 3.5C317.03 2.53 317.03 2.53 318.15 1.53C320 0 320 0 321 0Z"
            fill="#1B391B" />
        <path
            d="M519 192C527.89 195.34 534.16 200.6 540 208C539.67 208.66 539.34 209.32 539 210C536.35 208.55 533.71 207.09 531.06 205.62C530.31 205.21 529.55 204.8 528.78 204.38C528.06 203.98 527.34 203.58 526.6 203.16C525.93 202.8 525.27 202.43 524.58 202.05C523 201 523 201 522 199C522.99 199 523.98 199 525 199C523.02 196.69 521.04 194.38 519 192Z"
            fill="white" />
        <path
            d="M460 102C461.32 102 462.64 102 464 102C462.64 104.99 461.05 107.29 458.88 109.75C458.07 110.67 458.07 110.67 457.24 111.61C456.83 112.07 456.42 112.53 456 113C455.67 112.34 455.34 111.68 455 111C455.74 109.09 455.74 109.09 456.88 106.94C457.24 106.22 457.61 105.51 457.99 104.78C459 103 459 103 460 102Z"
            fill="white" />
        <path
            d="M196 114V116L203.5 127L207 134.5V139V141L197.5 130V132.5L200.5 139L203.5 144.5L208 152.5L210.5 159.5L200.5 152.5L191 143.5V147.5C191 147.9 194.333 152.333 196 154.5L202 165L210.5 172C211.667 172.5 214.2 174.1 215 176.5C215.8 178.9 216.333 184.833 216.5 187.5L219.5 212L203.5 199.5C199.667 196 192.2 188.7 193 187.5C193.8 186.3 190.333 172 188.5 165C186.5 156.333 182.8 139 184 139C185.2 139 183.167 111.333 182 97.5L196 114Z"
            fill="white" />
        <path
            d="M191 147.5V143.5L200.5 152.5L210.5 159.5L208 152.5L203.5 144.5L200.5 139L197.5 132.5V130L207 141V139V134.5L203.5 127L196 116V114L182 97.5C183.167 111.333 185.2 139 184 139C182.8 139 186.5 156.333 188.5 165C190.333 172 193.8 186.3 193 187.5C192.2 188.7 199.667 196 203.5 199.5L219.5 212L216.5 187.5C216.333 184.833 215.8 178.9 215 176.5C214.2 174.1 211.667 172.5 210.5 172L202 165L196 154.5C194.333 152.333 191 147.9 191 147.5ZM191 143.5C191 144.667 191 147.1 191 147.5" />
        <path
            d="M223.5 108H217.5C217.5 109.833 218.3 115.7 221.5 124.5C223.692 126.144 227.552 129.073 228.411 129.84C228.42 128.935 232.691 125.001 235 123L233 118.5C231.167 116.833 227.4 113.5 227 113.5C226.6 113.5 224.5 109.833 223.5 108Z"
            fill="white" />
        <path
            d="M228.411 129.84C227.552 129.073 223.692 126.144 221.5 124.5C218.3 115.7 217.5 109.833 217.5 108H223.5C224.5 109.833 226.6 113.5 227 113.5C227.4 113.5 231.167 116.833 233 118.5L235 123C232.691 125.001 228.42 128.935 228.411 129.84ZM228.411 129.84C228.597 130.006 228.642 130.071 228.5 130C228.439 129.969 228.41 129.915 228.411 129.84Z" />
        <path
            d="M302.5 7C306.9 7 312.333 6 314.5 5.5L314 8L317 11L321.5 16.5L324.5 20C325.5 21 327.5 23.2 327.5 24C327.5 24.8 327.833 25.6667 328 26H332C334.667 30.3333 339.9 39.2 339.5 40C339.1 40.8 340.333 42.6667 341 43.5L333.5 38.5L333 39L334 44L327.5 40L329 45L332 50L336 53.5L339.5 57L342.5 62L344 67L349 72.5L356 79L364.5 85.5L365.5 68.5L403 95L408.5 106.5L416.5 114.5L427 121.5L436 129C435.5 129.5 434.8 130.7 436 131.5L442 135.5L445.5 138C447 141 449.7 146.9 448.5 146.5C447.3 146.1 454 150.667 457.5 153L472 165.5L471 168L453.5 158L456 166.5L450 163L444.5 161.5L448.5 169.5L453.5 177.5L452 179L446.5 174L444.5 169.5L436 161.5L430 153L425.5 148L423 150L405 130.5L400.5 126.5L393.5 124.5L387.5 120L381.5 113L377.5 106.5L374.5 100.5L370.5 97.5L365.5 95L361.5 94L354.5 90L356 97.5L347 90C347.8 95.2 347.333 95.5 347 95L333.5 89V60L332 76.5H329L330 70.5H327.5V64.5H324.5V63H326.5V52L319 47L314 44V48.5L312.5 52L309 55V45L311.5 39L307.5 40L301.5 33.5L299.5 27L301.5 21L303 24.5L304.5 15.5L303 14L302.5 7Z"
            fill="white" />
        <path
            d="M442 135.5L436 131.5C434.8 130.7 435.5 129.5 436 129L427 121.5L416.5 114.5L408.5 106.5L403 95L365.5 68.5L364.5 85.5L356 79L349 72.5L344 67L342.5 62L339.5 57L336 53.5L332 50L329 45L327.5 40L334 44L333 39L333.5 38.5L341 43.5C340.333 42.6667 339.1 40.8 339.5 40C339.9 39.2 334.667 30.3333 332 26H328C327.833 25.6667 327.5 24.8 327.5 24C327.5 23.2 325.5 21 324.5 20L321.5 16.5L317 11L314 8L314.5 5.5C312.333 6 306.9 7 302.5 7L303 14L304.5 15.5L303 24.5L301.5 21L299.5 27L301.5 33.5L307.5 40L311.5 39L309 45V55L312.5 52L314 48.5V44L319 47L326.5 52V63H324.5V64.5H327.5V70.5H330L329 76.5H332L333.5 60V89L347 95C347.333 95.5 347.8 95.2 347 90L356 97.5L354.5 90L361.5 94L365.5 95L370.5 97.5L374.5 100.5L377.5 106.5L381.5 113L387.5 120L393.5 124.5L400.5 126.5L405 130.5L423 150L425.5 148L430 153L436 161.5L444.5 169.5L446.5 174L452 179L453.5 177.5L448.5 169.5L444.5 161.5L450 163L456 166.5L453.5 158L471 168L472 165.5L457.5 153C454 150.667 447.3 146.1 448.5 146.5C449.7 146.9 447 141 445.5 138L442 135.5ZM436 131.5C437.2 132.3 440.5 134.5 442 135.5" />
    </g>
    <defs>
        <clipPath id="clip0_14351_5806">
            <rect width="632" height="305" fill="white" />
        </clipPath>
    </defs>
</svg>